name rise37.2698peak67.6939fall79.5734.mot
datacolumns 19
datarows 21
range 3.65665300000000 3.68998500000000
endheader
time	ground_force1_vx	ground_force1_vy	ground_force1_vz	ground_force1_px	ground_force1_py	ground_force1_pz	ground_force2_vx	ground_force2_vy	ground_force2_vz	ground_force2_px	ground_force2_py	ground_force2_pz	ground_torque1_x	ground_torque1_y	ground_torque1_z	ground_torque2_x	ground_torque2_y	ground_torque2_z	
3.65665300000000	67.99850100000000	801.00605599999994	50.81096500000000	0.35135600000000	0.00000000000000	0.09005600000000	0.00000000000000	0.00000000000000	0.00000000000000	0.00000000000000	0.00000000000000	0.00000000000000	0.00000000000000	22.93632700000000	0.00000000000000	0.00000000000000	0.00000000000000	0.00000000000000	
3.65832300000000	67.47307300000000	802.98177799999996	50.90811400000000	0.35093400000000	0.00000000000000	0.09004200000000	0.00000000000000	0.00000000000000	0.00000000000000	0.00000000000000	0.00000000000000	0.00000000000000	0.00000000000000	23.00346200000000	0.00000000000000	0.00000000000000	0.00000000000000	0.00000000000000	
3.65998900000000	66.94341400000000	804.77383899999995	51.00788800000000	0.35052900000000	0.00000000000000	0.09002900000000	0.00000000000000	0.00000000000000	0.00000000000000	0.00000000000000	0.00000000000000	0.00000000000000	0.00000000000000	23.07508000000000	0.00000000000000	0.00000000000000	0.00000000000000	0.00000000000000	
3.66165800000000	66.40989900000000	806.38309500000003	51.10993800000000	0.35013900000000	0.00000000000000	0.09001600000000	0.00000000000000	0.00000000000000	0.00000000000000	0.00000000000000	0.00000000000000	0.00000000000000	0.00000000000000	23.15086600000000	0.00000000000000	0.00000000000000	0.00000000000000	0.00000000000000	
3.66332100000000	65.87287499999999	807.81072300000005	51.21384700000000	0.34976300000000	0.00000000000000	0.09000200000000	0.00000000000000	0.00000000000000	0.00000000000000	0.00000000000000	0.00000000000000	0.00000000000000	0.00000000000000	23.23045700000000	0.00000000000000	0.00000000000000	0.00000000000000	0.00000000000000	
3.66499000000000	65.33265900000001	809.05821200000003	51.31914800000000	0.34939700000000	0.00000000000000	0.08998900000000	0.00000000000000	0.00000000000000	0.00000000000000	0.00000000000000	0.00000000000000	0.00000000000000	0.00000000000000	23.31344800000000	0.00000000000000	0.00000000000000	0.00000000000000	0.00000000000000	
3.66665300000000	64.78954400000001	810.12736800000005	51.42531800000000	0.34904000000000	0.00000000000000	0.08997600000000	0.00000000000000	0.00000000000000	0.00000000000000	0.00000000000000	0.00000000000000	0.00000000000000	0.00000000000000	23.39939600000000	0.00000000000000	0.00000000000000	0.00000000000000	0.00000000000000	
3.66832300000000	64.24379900000000	811.02030800000000	51.53179600000000	0.34869000000000	0.00000000000000	0.08996400000000	0.00000000000000	0.00000000000000	0.00000000000000	0.00000000000000	0.00000000000000	0.00000000000000	0.00000000000000	23.48782000000000	0.00000000000000	0.00000000000000	0.00000000000000	0.00000000000000	
3.66999300000000	63.69567300000000	811.73945600000002	51.63798100000000	0.34834500000000	0.00000000000000	0.08995100000000	0.00000000000000	0.00000000000000	0.00000000000000	0.00000000000000	0.00000000000000	0.00000000000000	0.00000000000000	23.57821300000000	0.00000000000000	0.00000000000000	0.00000000000000	0.00000000000000	
3.67165700000000	63.14539600000000	812.28753900000004	51.74324300000000	0.34800300000000	0.00000000000000	0.08993900000000	0.00000000000000	0.00000000000000	0.00000000000000	0.00000000000000	0.00000000000000	0.00000000000000	0.00000000000000	23.67003700000000	0.00000000000000	0.00000000000000	0.00000000000000	0.00000000000000	
3.67332000000000	62.59318400000000	812.66757800000005	51.84692900000000	0.34766000000000	0.00000000000000	0.08992700000000	0.00000000000000	0.00000000000000	0.00000000000000	0.00000000000000	0.00000000000000	0.00000000000000	0.00000000000000	23.76273600000000	0.00000000000000	0.00000000000000	0.00000000000000	0.00000000000000	
3.67499200000000	62.03923900000000	812.88288399999999	51.94836700000000	0.34731600000000	0.00000000000000	0.08991600000000	0.00000000000000	0.00000000000000	0.00000000000000	0.00000000000000	0.00000000000000	0.00000000000000	0.00000000000000	23.85573600000000	0.00000000000000	0.00000000000000	0.00000000000000	0.00000000000000	
3.67665700000000	61.48375200000000	812.93704700000001	52.04687600000000	0.34696800000000	0.00000000000000	0.08990400000000	0.00000000000000	0.00000000000000	0.00000000000000	0.00000000000000	0.00000000000000	0.00000000000000	0.00000000000000	23.94844900000000	0.00000000000000	0.00000000000000	0.00000000000000	0.00000000000000	
3.67832200000000	60.92690600000000	812.83392400000002	52.14177200000000	0.34661400000000	0.00000000000000	0.08989300000000	0.00000000000000	0.00000000000000	0.00000000000000	0.00000000000000	0.00000000000000	0.00000000000000	0.00000000000000	24.04028100000000	0.00000000000000	0.00000000000000	0.00000000000000	0.00000000000000	
3.67999000000000	60.36887600000000	812.57763199999999	52.23237000000000	0.34625100000000	0.00000000000000	0.08988200000000	0.00000000000000	0.00000000000000	0.00000000000000	0.00000000000000	0.00000000000000	0.00000000000000	0.00000000000000	24.13063300000000	0.00000000000000	0.00000000000000	0.00000000000000	0.00000000000000	
3.68165400000000	59.80983700000000	812.17253600000004	52.31799700000000	0.34587700000000	0.00000000000000	0.08987200000000	0.00000000000000	0.00000000000000	0.00000000000000	0.00000000000000	0.00000000000000	0.00000000000000	0.00000000000000	24.21890800000000	0.00000000000000	0.00000000000000	0.00000000000000	0.00000000000000	
3.68332400000000	59.24995500000000	811.62323100000003	52.39799000000000	0.34549000000000	0.00000000000000	0.08986100000000	0.00000000000000	0.00000000000000	0.00000000000000	0.00000000000000	0.00000000000000	0.00000000000000	0.00000000000000	24.30451300000000	0.00000000000000	0.00000000000000	0.00000000000000	0.00000000000000	
3.68499000000000	58.68940200000000	810.93453499999998	52.47170900000000	0.34508800000000	0.00000000000000	0.08985100000000	0.00000000000000	0.00000000000000	0.00000000000000	0.00000000000000	0.00000000000000	0.00000000000000	0.00000000000000	24.38686400000000	0.00000000000000	0.00000000000000	0.00000000000000	0.00000000000000	
3.68665400000000	58.12834500000000	810.11147200000005	52.53853600000000	0.34466900000000	0.00000000000000	0.08984200000000	0.00000000000000	0.00000000000000	0.00000000000000	0.00000000000000	0.00000000000000	0.00000000000000	0.00000000000000	24.46539200000000	0.00000000000000	0.00000000000000	0.00000000000000	0.00000000000000	
3.68832500000000	57.56695800000000	809.15925500000003	52.59788300000000	0.34423100000000	0.00000000000000	0.08983200000000	0.00000000000000	0.00000000000000	0.00000000000000	0.00000000000000	0.00000000000000	0.00000000000000	0.00000000000000	24.53954200000000	0.00000000000000	0.00000000000000	0.00000000000000	0.00000000000000	
3.68998500000000	57.00541700000000	808.08327399999996	52.64919500000000	0.34377100000000	0.00000000000000	0.08982300000000	0.00000000000000	0.00000000000000	0.00000000000000	0.00000000000000	0.00000000000000	0.00000000000000	0.00000000000000	24.60878200000000	0.00000000000000	0.00000000000000	0.00000000000000	0.00000000000000	
